<svg width="40.000000" height="40.000000" viewBox="0 0 40 40" fill="none" xmlns="http://www.w3.org/2000/svg" xmlns:xlink="http://www.w3.org/1999/xlink">
	<desc>
			Created with Pixso.
	</desc>
	<defs/>
	<path id="icon-search-white" d="M28.5714 25.1428L26.7429 25.1428L26.0571 24.4572C28.3428 21.9429 29.7143 18.5143 29.7143 14.8572C29.7143 6.62854 23.0857 0 14.8571 0C6.62857 0 0 6.62854 0 14.8572C0 23.0857 6.62857 29.7142 14.8571 29.7142C18.5143 29.7142 21.9429 28.3429 24.4571 26.0571L25.1429 26.7428L25.1429 28.5714L36.5714 40L40 36.5714L28.5714 25.1428ZM4.57129 14.8572C4.57129 20.5714 9.14272 25.1428 14.857 25.1428C20.5713 25.1428 25.1427 20.5714 25.1427 14.8572C25.1427 9.14282 20.5713 4.57141 14.857 4.57141C9.14272 4.57141 4.57129 9.14282 4.57129 14.8572Z" clip-rule="evenodd" fill="#FFFFFF" fill-opacity="1.000000" fill-rule="evenodd"/>
</svg>
